<svg xmlns="http://www.w3.org/2000/svg" viewBox="0 0 64 64">
  <rect width="64" height="64" rx="16" fill="#26734d"/>
  <g fill="#fff" transform="translate(0 -1)">
    <path d="M35 35c5.8 6.4 9.4 14 11.5 22.5" fill="none" stroke="#fff" stroke-width="4" stroke-linecap="round"/>
    <path d="M32 34c-4.2-4.3-12-7.7-12-16A12 12 0 0 1 44 18c0 8.3-7.8 11.7-12 16Z"/><path d="M30 32c4.3-4.2 7.7-12 16-12a12 12 0 0 1 0 24c-8.3 0-11.7-7.8-16-12Z"/><path d="M32 30c4.2 4.3 12 7.7 12 16a12 12 0 0 1-24 0c0-8.3 7.8-11.7 12-16Z"/><path d="M34 32c-4.3 4.2-7.7 12-16 12a12 12 0 0 1 0-24c8.3 0 11.7 7.8 16 12Z"/>
  </g>
</svg>
